#!OML:ASF F:\twosubjects\two\wednesday\Session 1\rory1.ASF
:FULLY-SPECIFIED
:DEGREES
487
root -4.10983 17.4221 3.29493 556.38 40.6738 -159.315
lowerback 9.9428 6.18278 -4.7523
upperback 3.95973 8.06514 -1.94044
thorax -1.75224 4.13873 -0.306401
lowerneck -0.470313 -19.9833 -17.4996
upperneck -2.19321 -28.4862 34.1231
head 7.52076 -13.4659 10.2872
rclavicle 8.74653e-015 2.8625e-014
rhumerus 65.3395 -56.2339 -105.059
rradius 15.0723
rwrist -30.0565
rhand -5.08758 15.3137
rfingers 7.12502
rthumb 20.7093 -13.6013
lclavicle 8.74653e-015 2.8625e-014
lhumerus -33.6301 1.81138 52.468
lradius 38.7182
lwrist 8.23554
lhand -21.2452 17.6654
lfingers 7.12502
lthumb 5.13763 47.5831
rfemur -9.10828 4.70724 17.5956
rtibia 33.1547
rfoot -14.345 -27.46
rtoes 11.5061
lfemur -35.7821 -12.816 -5.63684
ltibia 53.6397
lfoot -15.5257 -6.27792
ltoes 4.17647
488
root -4.25546 17.4047 3.21346 557.733 41.9533 -157.695
lowerback 11.123 7.09259 -3.57483
upperback 4.11199 9.37119 -2.52891
thorax -1.98951 4.82426 -1.84142
lowerneck -1.92565 -21.1637 -15.2286
upperneck -3.1021 -29.8252 34.5112
head 7.53473 -13.934 9.59339
rclavicle -7.95139e-014 4.45278e-014
rhumerus 67.239 -58.5352 -106.329
rradius 15.5345
rwrist -31.2306
rhand -5.78154 14.6097
rfingers 7.12502
rthumb 20.0423 -14.3766
lclavicle -7.95139e-014 4.45278e-014
lhumerus -30.3621 -0.312472 52.3472
lradius 38.1649
lwrist 8.91133
lhand -20.0313 18.1205
lfingers 7.12502
lthumb 6.30963 48.0065
rfemur -11.2629 2.41264 19.3052
rtibia 36.5035
rfoot -15.6403 -29.6937
rtoes 14.197
lfemur -35.8835 -11.5782 -5.1497
ltibia 53.6788
lfoot -15.5397 -6.1922
ltoes 5.5195
489
root -4.3473 17.4348 3.00852 557.357 44.0141 -158.011
lowerback 10.3444 6.67594 -4.14055
upperback 4.5017 8.83901 -2.50398
thorax -1.24713 4.55485 -1.30778
lowerneck -0.502748 -20.4635 -18.0565
upperneck -3.60956 -29.0797 35.9183
head 7.74268 -13.7788 10.7643
rclavicle -1.24042e-013 6.36111e-015
rhumerus 67.8386 -56.8339 -107.38
rradius 15.0873
rwrist -29.6947
rhand -5.56021 14.4132
rfingers 7.12502
rthumb 20.2551 -14.5507
lclavicle -1.24042e-013 6.36111e-015
lhumerus -32.1304 0.844817 52.0994
lradius 38.1556
lwrist 9.62042
lhand -21.123 16.6695
lfingers 7.12502
lthumb 5.25561 46.5844
rfemur -12.1914 -0.44545 18.982
rtibia 39.7907
rfoot -17.0087 -30.6414
rtoes 15.6408
lfemur -34.4714 -11.0081 -6.98206
ltibia 53.5104
lfoot -16.5194 -5.35442
ltoes 6.15486
490
root -4.45426 17.4356 2.84508 557.985 45.7334 -157.445
lowerback 10.2358 7.06211 -3.72745
upperback 4.95402 9.48292 -3.05026
thorax -0.560015 4.90993 -2.09979
lowerneck -2.23368 -21.004 -16.7255
upperneck -3.68425 -29.6404 35.7508
head 7.90213 -13.8356 10.1795
rclavicle -1.04958e-013 -3.18055e-014
rhumerus 67.2271 -57.2268 -106.249
rradius 15.555
rwrist -31.0257
rhand -6.66337 14.2103
rfingers 7.12502
rthumb 19.1946 -14.8624
lclavicle -1.04958e-013 -3.18055e-014
lhumerus -30.7953 -0.0643437 51.8852
lradius 37.8662
lwrist 9.50326
lhand -22.4021 16.1127
lfingers 7.12502
lthumb 4.02044 46.0546
rfemur -13.6088 -2.98826 19.563
rtibia 43.0416
rfoot -20.2751 -30.5625
rtoes 22.2716
lfemur -33.8926 -10.2533 -7.78694
ltibia 53.3808
lfoot -17.0302 -4.91996
ltoes 7.63697
491
root -4.5747 17.425 2.71138 558.824 47.0995 -157.433
lowerback 10.0502 7.24526 -4.45119
upperback 4.69345 9.62801 -3.15932
thorax -0.824189 4.96247 -1.84487
lowerneck -2.41633 -20.9629 -16.3134
upperneck -3.75622 -29.4852 35.3811
head 7.71573 -13.7677 10.033
rclavicle -6.52014e-014 6.99722e-014
rhumerus 64.1139 -57.0423 -102.448
rradius 15.784
rwrist -32.0273
rhand -6.72213 13.5077
rfingers 7.12502
rthumb 19.138 -15.5707
lclavicle -6.52014e-014 6.99722e-014
lhumerus -31.0566 -0.431708 51.8393
lradius 37.6802
lwrist 7.8283
lhand -24.5892 14.9742
lfingers 7.12502
lthumb 1.90833 44.9454
rfemur -15.702 -5.72932 20.0319
rtibia 46.2087
rfoot -22.6715 -29.9061
rtoes 27.1837
lfemur -34.2315 -9.59513 -8.69315
ltibia 53.1593
lfoot -17.0376 -4.82189
ltoes 9.55238
492
root -4.68086 17.4205 2.52852 558.374 49.2145 -157.619
lowerback 10.664 7.66088 -5.20884
upperback 4.84739 10.102 -3.35322
thorax -1.07644 5.20554 -1.7818
lowerneck -2.8129 -21.039 -15.9548
upperneck -3.89685 -29.4894 35.1235
head 7.62121 -13.7487 9.85849
rclavicle -9.54166e-014 6.67916e-014
rhumerus 65.2841 -57.8527 -103.376
rradius 15.4298
rwrist -29.3412
rhand -3.47004 12.562
rfingers 7.12502
rthumb 22.2628 -16.1757
lclavicle -9.54166e-014 6.67916e-014
lhumerus -30.9822 -0.788482 51.7883
lradius 37.3591
lwrist 6.7895
lhand -26.732 12.9633
lfingers 7.12502
lthumb -0.161249 42.9429
rfemur -16.5044 -7.97619 19.8673
rtibia 49.3987
rfoot -22.8156 -29.3474
rtoes 26.7807
lfemur -33.002 -9.25744 -10.3933
ltibia 52.9224
lfoot -17.5106 -3.76085
ltoes 8.68233
493
root -4.77529 17.4152 2.36097 558.805 51.061 -157.29
lowerback 10.7883 7.91999 -5.48049
upperback 4.93253 10.4282 -3.55804
thorax -1.06002 5.3726 -1.90175
lowerneck -3.09919 -21.1776 -15.9587
upperneck -4.22204 -29.6127 35.3162
head 7.64426 -13.7942 9.84803
rclavicle 1.06549e-013 -6.99722e-014
rhumerus 66.7962 -58.5579 -104.777
rradius 14.9235
rwrist -25.704
rhand 0.151892 12.1159
rfingers 7.12502
rthumb 25.7359 -16.1639
lclavicle 1.06549e-013 -6.99722e-014
lhumerus -30.7657 -1.3148 51.7412
lradius 36.9535
lwrist 6.93212
lhand -27.132 12.29
lfingers 7.12502
lthumb -0.547612 42.269
rfemur -17.8436 -10.006 20.4527
rtibia 52.5667
rfoot -23.8287 -28.4692
rtoes 28.6195
lfemur -32.4176 -8.63518 -11.4814
ltibia 52.5957
lfoot -17.83 -2.8594
ltoes 7.44581
494
root -4.8624 17.4139 2.19365 559.18 52.8722 -157.265
lowerback 10.6198 8.05604 -6.01004
upperback 5.07075 10.5961 -3.76423
thorax -0.871971 5.45412 -1.81885
lowerneck -3.56025 -21.2301 -16.3979
upperneck -4.4398 -29.6733 35.8929
head 7.88137 -13.7683 10.014
rclavicle 7.31528e-014 -5.40694e-014
rhumerus 67.4543 -58.567 -105.213
rradius 14.4107
rwrist -23.1793
rhand 0.0272927 12.8748
rfingers 7.12502
rthumb 25.6165 -15.4222
lclavicle 7.31528e-014 -5.40694e-014
lhumerus -30.9949 -1.41608 51.7348
lradius 36.9263
lwrist 7.13651
lhand -25.8444 13.574
lfingers 7.12502
lthumb 0.69602 43.5526
rfemur -19.2835 -11.9064 21.0035
rtibia 55.6152
rfoot -24.1244 -27.4934
rtoes 29.0678
lfemur -32.0712 -7.9226 -12.7194
ltibia 52.288
lfoot -18.1433 -2.12186
ltoes 7.87528
495
root -4.94337 17.4293 2.01773 558.196 54.9333 -158.608
lowerback 10.5864 8.19348 -7.26268
upperback 5.34306 10.7331 -4.19808
thorax -0.686761 5.52265 -1.60086
lowerneck -4.27382 -21.2462 -16.4401
upperneck -4.68916 -29.5879 36.1068
head 7.96409 -13.6596 10.0335
rclavicle -8.26944e-014 0
rhumerus 68.4688 -58.4483 -106.063
rradius 13.9093
rwrist -21.6976
rhand -2.04801 14.6886
rfingers 7.12502
rthumb 23.6273 -13.8797
lclavicle -8.26944e-014 0
lhumerus -31.4974 -1.09591 51.5779
lradius 37.3803
lwrist 7.26883
lhand -24.9119 14.5991
lfingers 7.12502
lthumb 1.5967 44.5729
rfemur -20.2925 -13.8473 20.486
rtibia 58.5953
rfoot -23.0101 -25.9952
rtoes 26.6504
lfemur -31.3185 -7.24332 -14.9583
ltibia 51.776
lfoot -18.3693 -1.20842
ltoes 8.01292
496
root -5.03569 17.4213 1.86387 560.64 56.1847 -156.324
lowerback 10.547 8.24544 -6.34616
upperback 5.22823 10.8481 -4.10475
thorax -0.65685 5.58173 -1.99532
lowerneck -4.70333 -21.2761 -16.2005
upperneck -5.05417 -29.4706 35.9989
head 7.82824 -13.5911 9.95361
rclavicle 3.18055e-014 -3.18055e-014
rhumerus 66.4318 -58.0196 -103.557
rradius 13.7654
rwrist -22.2863
rhand -2.76481 16.0342
rfingers 7.12502
rthumb 22.9397 -12.621
lclavicle 3.18055e-014 -3.18055e-014
lhumerus -31.9068 -0.617417 51.2519
lradius 37.7958
lwrist 7.48081
lhand -24.616 14.6315
lfingers 7.12502
lthumb 1.88246 44.6029
rfemur -21.7547 -15.2072 22.6873
rtibia 61.4303
rfoot -24.1535 -22.7431
rtoes 30.4694
lfemur -31.5168 -6.04414 -14.5617
ltibia 51.4311
lfoot -18.2518 -0.782646
ltoes 7.43204
